<svg id="Layer_1" data-name="Layer 1" xmlns="http://www.w3.org/2000/svg" viewBox="0 0 600 600"><defs><style>.cls-1{fill:#ffcc60;}.cls-2{fill:#fff;}</style></defs><title>favicon</title><rect class="cls-1" width="600" height="600" rx="90.81"/><path class="cls-2" d="M388.58,319.15a8.87,8.87,0,0,0-12.14-3.24l-67,38.92a18.06,18.06,0,0,0-18.8-.06l-39.81-23a8.52,8.52,0,0,0-11.64,3.13l-.36.61A8.54,8.54,0,0,0,242,347.17l39.86,23c0,.05,0,.11,0,.17a18.19,18.19,0,0,0,36.38,0v-.05l67.14-39a8.9,8.9,0,0,0,3.25-12.13Z"/><path class="cls-2" d="M312.84,116.68v-26h1.32a20.15,20.15,0,0,0,0-40.3H285.84a20.15,20.15,0,1,0,0,40.3h1.32v26c-37.72,5.38-71.91,34-98.37,73.68L172.65,180.3l.5-.79a14.36,14.36,0,0,0-4.55-19.81h0a14.38,14.38,0,0,0-19.81,4.55l-10.72,17.12a14.38,14.38,0,0,0,4.55,19.81h0a14.38,14.38,0,0,0,19.81-4.55l.5-.8L179.12,206c-28,48.44-45.18,109.35-45.18,164.38a166.06,166.06,0,0,0,332.12,0C466.06,253.88,398.56,128.27,312.84,116.68ZM300,492.57A122.23,122.23,0,1,1,422.22,370.35,122.22,122.22,0,0,1,300,492.57Z"/></svg>