<svg id="Layer_1" data-name="Layer 1" xmlns="http://www.w3.org/2000/svg" viewBox="0 0 600 600"><defs><style>.cls-1{fill:#ffcc60;}.cls-2{fill:#fff;}</style></defs><title>favicon</title><rect class="cls-1" width="600" height="600" rx="90.81"/><path class="cls-2" d="M300,115.82c-40,0-76.66,26.61-105.32,66.11l-22.45-14.36a14.84,14.84,0,0,0-20.49,4.55h0a14.85,14.85,0,0,0,4.55,20.49l22.32,14.27c-27.71,48.29-44.67,108.78-44.67,163.47a166.06,166.06,0,0,0,332.12,0C466.06,248.12,391.71,115.82,300,115.82Zm0,390.91A136.39,136.39,0,1,1,436.38,370.35,136.38,136.38,0,0,1,300,506.73Z"/><rect class="cls-2" x="249.34" y="56.61" width="101.31" height="40.3" rx="20.15"/><path class="cls-2" d="M300,257.28a14.83,14.83,0,0,0-14.84,14.84v97.81a14.84,14.84,0,1,0,29.68,0V272.12A14.83,14.83,0,0,0,300,257.28Z"/></svg>